<svg width="25" height="25" viewBox="0 0 25 25" fill="none" xmlns="http://www.w3.org/2000/svg">
<path d="M4.32951 6.1843H4.3307M4.3307 6.1843H23.0381C23.1143 6.1841 23.1896 6.20091 23.2584 6.23353C23.3272 6.26614 23.3879 6.31372 23.436 6.37279C23.484 6.43186 23.5183 6.50091 23.5363 6.57493C23.5543 6.64894 23.5554 6.72602 23.5398 6.80056L21.71 15.5386C21.6868 15.6497 21.6272 15.75 21.5407 15.8235C21.4542 15.897 21.3457 15.9397 21.2323 15.9447H6.80903M4.3307 6.1843L6.7708 15.9447H6.80903M4.3307 6.1843L3.42655 2.56771C3.3766 2.36985 3.26208 2.19432 3.10114 2.06885C2.94019 1.94338 2.74202 1.87517 2.53795 1.875H0.626953M6.80903 15.9447V18.2092C6.8084 18.3894 6.84343 18.5681 6.91211 18.7347C6.98079 18.9014 7.08177 19.0527 7.20922 19.1802C7.33667 19.3076 7.48808 19.4086 7.65472 19.4773C7.82136 19.546 7.99993 19.581 8.18017 19.5803H21.9059" stroke="#F4B5A4" stroke-width="1.911" stroke-miterlimit="10"/>
<path d="M7.61038 24.1192C8.44152 24.1192 9.11529 23.4454 9.11529 22.6143C9.11529 21.7831 8.44152 21.1094 7.61038 21.1094C6.77924 21.1094 6.10547 21.7831 6.10547 22.6143C6.10547 23.4454 6.77924 24.1192 7.61038 24.1192Z" fill="#F4B5A4"/>
<path d="M18.3932 24.1192C19.2243 24.1192 19.8981 23.4454 19.8981 22.6143C19.8981 21.7831 19.2243 21.1094 18.3932 21.1094C17.562 21.1094 16.8883 21.7831 16.8883 22.6143C16.8883 23.4454 17.562 24.1192 18.3932 24.1192Z" fill="#F4B5A4"/>
</svg>
