<svg width="29" height="22" viewBox="0 0 29 22" fill="none" xmlns="http://www.w3.org/2000/svg">
<path d="M7.53657 16.6376V20.5553H21.9126V16.3713M21.9126 7.72801V4.80782C21.9126 3.91602 21.5518 3.06075 20.9094 2.43015C20.2671 1.79956 19.3959 1.44531 18.4876 1.44531H4.49307C3.71304 1.44888 2.96607 1.75495 2.41493 2.29687C1.86379 2.8388 1.5532 3.57261 1.55078 4.3384V7.10063H5.45396M7.5366 17.0167V4.3384C7.53417 3.57183 7.2229 2.83733 6.67077 2.29528C6.11864 1.75323 5.37048 1.44769 4.58965 1.44531M10.3778 5.94521H14.4373M10.3778 9.9667H16.0463M10.3778 14.6923H18.7082M25.5538 7.33984C24.9509 7.11095 24.2961 7.04676 23.659 7.15405C23.0219 7.26134 22.4264 7.53609 21.9356 7.94914C21.4449 7.53609 20.8493 7.26134 20.2122 7.15405C19.5751 7.04676 18.9204 7.11095 18.3175 7.33984C17.88 7.50655 17.4802 7.75631 17.141 8.07476C16.8019 8.39322 16.5299 8.77413 16.3408 9.1958C16.1517 9.61747 16.0491 10.0716 16.0388 10.5323C16.0285 10.9929 16.1107 11.451 16.2808 11.8804C16.9796 13.6497 21.931 16.5022 21.931 16.5022C22.1333 16.3893 26.8824 13.6542 27.5812 11.8849C27.7523 11.4558 27.8356 10.9978 27.8263 10.5371C27.8169 10.0764 27.7152 9.62197 27.5269 9.19987C27.3386 8.77777 27.0674 8.39623 26.7289 8.07707C26.3903 7.75792 25.991 7.50741 25.5538 7.33984Z" stroke="#F4B5A4" stroke-width="1.911" stroke-miterlimit="10"/>
</svg>
