<svg width="45" height="43" viewBox="0 0 45 43" fill="none" xmlns="http://www.w3.org/2000/svg">
<path d="M32.5405 42V18.5975H13.3384V42M32.5405 42H13.3384M32.5405 42H43.9395V25.012H32.5405M32.5405 42V25.012M13.3384 42V25.012M13.3384 42H1.93945V25.012H13.3384M13.3384 25.012H32.5405M21.1181 0V4.88731L12.8332 11.619C12.8271 11.6296 12.8238 11.6416 12.8237 11.6537C12.8236 11.6659 12.8267 11.6779 12.8326 11.6886C12.8385 11.6992 12.8469 11.7081 12.8573 11.7144C12.8677 11.7208 12.8798 11.7243 12.892 11.7247H33.034C33.0462 11.7243 33.0581 11.7208 33.0685 11.7144C33.0789 11.7081 33.0875 11.6992 33.0934 11.6886C33.0993 11.6779 33.1024 11.6659 33.1023 11.6537C33.1022 11.6416 33.0989 11.6296 33.0928 11.619L24.8668 4.88731V0M13.3384 29.8758H1.93945M43.9395 29.8758H32.5405M17.3692 29.1944H28.5097V38.0643H17.3692V29.1944Z" stroke="#DCBEB6" stroke-width="2" stroke-miterlimit="10"/>
<circle cx="7.59285" cy="33.1124" r="0.807692" fill="#DCBEB6"/>
<circle cx="38.2862" cy="33.1124" r="0.807692" fill="#DCBEB6"/>
<circle cx="0.807692" cy="0.807692" r="0.807692" transform="matrix(1 0 0 -1 17.2852 22.6172)" fill="#DCBEB6"/>
<circle cx="0.807692" cy="0.807692" r="0.807692" transform="matrix(1 0 0 -1 26.9785 22.6172)" fill="#DCBEB6"/>
<circle cx="0.807692" cy="0.807692" r="0.807692" transform="matrix(1 0 0 -1 22.1328 22.6172)" fill="#DCBEB6"/>
</svg>
