<svg width="33" height="41" viewBox="0 0 33 41" fill="none" xmlns="http://www.w3.org/2000/svg">
<path d="M28.1936 29.6586H5.65489M6.32236 23.5461H27.5261M16.9242 18.2909L16.9242 23.511M16.9242 29.6586V40.8998M11.5847 40.9279C11.5798 40.2046 11.7208 39.4877 11.9992 38.8202C12.4083 37.8534 13.0927 37.0283 13.9671 36.4474C14.8415 35.8666 15.8675 35.5556 16.9172 35.5532C17.9457 35.5532 18.9523 35.8502 19.816 36.4086C20.6798 36.967 21.3639 37.7629 21.7861 38.7007C22.0972 39.3921 22.2576 40.1417 22.2568 40.8998M26.4582 18.2909V7.04965C26.4563 5.61236 25.884 4.23459 24.8671 3.21893C23.8501 2.20327 22.4716 1.63281 21.0343 1.63281H12.8142C11.3769 1.63281 9.99836 2.20327 8.98138 3.21893C7.9644 4.23459 7.39215 5.61236 7.39029 7.04965V18.2909H26.4582ZM31.9102 19.3307C31.9102 18.7493 31.6792 18.1918 31.2681 17.7807C30.857 17.3696 30.2995 17.1386 29.7181 17.1386C29.1368 17.1386 28.5792 17.3696 28.1681 17.7807C27.757 18.1918 27.5261 18.7493 27.5261 19.3307V29.6586H31.9102V19.3307ZM6.32236 19.3307C6.32236 18.7493 6.09142 18.1918 5.68033 17.7807C5.26924 17.3696 4.71169 17.1387 4.13032 17.1387C3.8401 17.1349 3.55201 17.1889 3.28281 17.2974C3.0136 17.4059 2.76867 17.5667 2.56213 17.7706C2.3556 17.9746 2.19154 18.2175 2.07963 18.4853C1.96771 18.7531 1.91013 19.0404 1.91016 19.3307V29.6586H6.29423L6.32236 19.3307Z" stroke="#DCBEB6" stroke-width="2" stroke-miterlimit="10"/>
</svg>
