<svg width="38" height="36" viewBox="0 0 38 36" fill="none" xmlns="http://www.w3.org/2000/svg">
<path d="M36.8378 20.6627V31.7331H1V20.6627M8.64951 19.7615H29.1883M4.82481 11.9579V5.81332C4.82752 4.5376 5.33615 3.31483 6.23937 2.41276C7.1426 1.51068 8.36681 1.00271 9.64416 1H28.2039C29.4813 1.00271 30.7056 1.51068 31.6088 2.41276C32.5121 3.31483 33.0207 4.5376 33.0234 5.81332V11.9579M29.1883 25.609H36.8378V14.8765C36.8378 14.1024 36.5299 13.3601 35.9819 12.8127C35.4338 12.2654 34.6905 11.9579 33.9154 11.9579H32.1107C31.3357 11.9579 30.5923 12.2654 30.0443 12.8127C29.4962 13.3601 29.1883 14.1024 29.1883 14.8765V25.609ZM29.1883 25.609H8.33163M8.64951 31.7331V35H4.38383V31.7331M33.454 31.7331V35H29.1883V31.7331M3.9224 11.9579H5.72711C6.50218 11.9579 7.2455 12.2654 7.79356 12.8127C8.34161 13.3601 8.64951 14.1024 8.64951 14.8765V25.609H1V14.8765C1 14.1024 1.30789 13.3601 1.85595 12.8127C2.40401 12.2654 3.14733 11.9579 3.9224 11.9579Z" stroke="#DCBEB6" stroke-width="2" stroke-miterlimit="10"/>
</svg>
