<svg width="50" height="32" viewBox="0 0 50 32" fill="none" xmlns="http://www.w3.org/2000/svg">
<path d="M9.17029 26.9178V30.0156H5.15659V26.9178M45.3689 26.9178V30.0156H41.3552V26.9178M5.0646 13.7352H45.4526C46.2731 13.7352 47.0601 14.0633 47.6403 14.6475C48.2205 15.2316 48.5465 16.0238 48.5465 16.8499V26.9515H1.9707V16.8499C1.9707 16.4408 2.05073 16.0358 2.20621 15.6579C2.3617 15.28 2.58959 14.9367 2.87689 14.6475C3.16418 14.3582 3.50525 14.1288 3.88062 13.9723C4.25599 13.8158 4.65831 13.7352 5.0646 13.7352ZM44.9593 4.66902V13.7352H5.58304V4.66902C5.58304 4.18854 5.67717 3.71273 5.86007 3.26893C6.04297 2.82513 6.31102 2.42204 6.6489 2.08268C6.98677 1.74332 7.38781 1.47434 7.82908 1.29123C8.27034 1.10813 8.74327 1.01453 9.22055 1.01563H41.3301C41.8067 1.01563 42.2787 1.1101 42.719 1.2937C43.1593 1.4773 43.5593 1.74641 43.8963 2.08566C44.2333 2.42491 44.5005 2.82763 44.6829 3.27088C44.8652 3.71414 44.9593 4.18925 44.9593 4.66902ZM22.2315 8.5497V13.7352H11.6789V8.5497C11.6789 8.27509 11.7871 8.01172 11.98 7.81754C12.1729 7.62337 12.4346 7.5143 12.7074 7.5143H21.203C21.4758 7.5143 21.7375 7.62337 21.9304 7.81754C22.1233 8.01172 22.2315 8.27509 22.2315 8.5497ZM38.8551 8.5497V13.7352H28.3022V8.5497C28.3022 8.27509 28.4107 8.01172 28.6036 7.81754C28.7965 7.62337 29.058 7.5143 29.3307 7.5143H37.8266C38.0993 7.5143 38.3608 7.62337 38.5537 7.81754C38.7466 8.01172 38.8551 8.27509 38.8551 8.5497Z" stroke="#CC7861" stroke-width="2" stroke-miterlimit="10"/>
</svg>
